<?xml version="1.0" encoding="utf-8"?>
<!-- Generator: Adobe Illustrator 17.0.0, SVG Export Plug-In . SVG Version: 6.00 Build 0)  -->
<!DOCTYPE svg PUBLIC "-//W3C//DTD SVG 1.1//EN" "http://www.w3.org/Graphics/SVG/1.1/DTD/svg11.dtd">
<svg version="1.1" id="Layer_1" xmlns="http://www.w3.org/2000/svg" xmlns:xlink="http://www.w3.org/1999/xlink" x="0px" y="0px"
	 width="218px" height="52.793px" viewBox="0 0 218 52.793" enable-background="new 0 0 218 52.793" xml:space="preserve">
<g>
	<path d="M13.127,37.483c-4.125-2.878-5.771-3.853-5.771-6.283c0-1.966,1.423-3.038,3.341-3.038c3.405,0,5.468,3.821,5.707,7.434
		h0.751c0-4.924,0.064-6.587,0.16-7.993h-0.751c-0.128,0.943-0.288,1.439-0.719,1.439c-0.304,0-0.592-0.16-1.119-0.464
		c-1.103-0.623-2.478-1.311-5.308-1.311c-4.221,0-8.105,1.902-8.105,6.187c0,3.613,2.718,5.499,5.819,7.578
		c2.782,1.854,4.78,3.438,4.78,6.154c0,2.031-1.535,3.197-3.933,3.197c-4.189,0-5.691-4.124-5.947-8.744H1.28
		c0,5.611-0.048,7.834-0.144,9.496h0.751c0.144-0.944,0.304-1.439,0.735-1.439c0.256,0,0.576,0.128,1.103,0.464
		c1.215,0.591,2.814,1.215,5.803,1.215c4.78,0,8.905-2.063,8.905-6.492C18.434,41.32,16.036,39.513,13.127,37.483z"/>
	<path d="M41.631,27.827L36.26,41.64l-6.187-13.909c-1.886,0.064-4.253,0.096-6.778,0.096c-0.975,0-2.062-0.032-2.718-0.096v0.655
		c1.966,0.096,2.334,0.432,2.334,2.814v13.957c0,3.692-0.336,4.668-2.334,5.099v0.656c0.655-0.064,1.743-0.096,2.718-0.096
		c1.215,0,2.798,0.032,3.677,0.096v-0.656c-3.117-0.431-3.309-1.374-3.309-5.755V29.858l9.224,21.023h0.528l7.898-20.207v16.77
		c0,2.383-0.432,2.719-2.654,2.814v0.656c1.247-0.064,3.469-0.096,5.819-0.096c2.174,0,4.46,0.032,5.803,0.096v-0.656
		c-1.966-0.095-2.318-0.431-2.318-2.814V31.201c0-2.382,0.32-2.718,2.318-2.814v-0.655c-1.343,0.064-3.629,0.096-5.803,0.096H41.631
		z"/>
	<path d="M72.15,48.163l-7.929-20.431c-0.512,0.048-1.119,0.064-1.711,0.064s-1.199-0.016-1.727-0.064L53.51,46.42
		c-1.039,2.719-1.998,3.678-3.006,3.837v0.656c0.655-0.064,1.663-0.096,2.526-0.096c1.503,0,2.654,0.032,4.284,0.096v-0.656
		c-1.743-0.064-2.958-0.463-2.958-2.382c0-0.975,0.32-2.351,1.055-4.269l0.56-1.471h6.603l1.95,5.372
		c0.256,0.672,0.4,1.168,0.4,1.551c0,0.895-0.751,1.135-2.302,1.199v0.656c1.167-0.064,3.277-0.096,5.499-0.096
		c2.158,0,4.38,0.032,5.963,0.096v-0.656C73.493,50.225,72.742,49.665,72.15,48.163z M56.227,41.48l3.149-8.185l2.974,8.185H56.227z
		"/>
	<path d="M92.933,42.071h-0.751c-0.752,4.221-4.061,8.09-6.347,8.09h-1.087c-1.407,0-1.679-0.256-1.679-2.063V31.201
		c0-2.382,0.432-2.718,2.654-2.814v-0.655c-1.343,0.064-3.629,0.096-5.787,0.096c-2.366,0-4.588-0.032-5.835-0.096v0.655
		c1.966,0.096,2.334,0.432,2.334,2.814v16.242c0,2.383-0.336,2.719-2.334,2.814v0.656c3.805-0.096,9.113-0.096,11.463-0.096
		c2.19,0,5.276,0,7.498,0.096c-0.224-2.286-0.224-4.685-0.224-5.836C92.837,43.91,92.869,42.855,92.933,42.071z"/>
	<path d="M113.427,42.071h-0.751c-0.751,4.221-4.061,8.09-6.347,8.09h-1.087c-1.407,0-1.678-0.256-1.678-2.063V31.201
		c0-2.382,0.432-2.718,2.654-2.814v-0.655c-1.343,0.064-3.629,0.096-5.787,0.096c-2.366,0-4.589-0.032-5.835-0.096v0.655
		c1.966,0.096,2.333,0.432,2.333,2.814v16.242c0,2.383-0.335,2.719-2.333,2.814v0.656c3.804-0.096,9.111-0.096,11.462-0.096
		c2.19,0,5.276,0,7.497,0.096c-0.223-2.286-0.223-4.685-0.223-5.836C113.332,43.91,113.363,42.855,113.427,42.071z"/>
	<path d="M135.635,27.731v0.655c1.967,0.096,2.318,0.432,2.318,2.814v7.722h-7.369v-7.722c0-2.382,0.335-2.718,2.334-2.814v-0.655
		c-1.279,0.064-3.437,0.096-5.468,0.096c-2.366,0-4.589-0.032-5.835-0.096v0.655c1.966,0.096,2.333,0.432,2.333,2.814v16.242
		c0,2.383-0.335,2.719-2.333,2.814v0.656c1.246-0.064,3.469-0.096,5.835-0.096c2.031,0,4.189,0.032,5.468,0.096v-0.656
		c-1.966-0.095-2.334-0.431-2.334-2.814v-7.866h7.369v7.866c0,2.383-0.32,2.719-2.318,2.814v0.656
		c1.343-0.064,3.63-0.096,5.787-0.096c2.238,0,4.332,0.032,5.499,0.096v-0.656c-1.95-0.095-2.319-0.431-2.319-2.814V31.201
		c0-2.382,0.336-2.718,2.319-2.814v-0.655c-1.168,0.064-3.261,0.096-5.499,0.096C139.264,27.827,136.978,27.795,135.635,27.731z"/>
	<path d="M161.149,27.268c-7.274,0-12.374,4.924-12.374,12.245c0,7.498,4.939,11.863,12.342,11.863
		c7.258,0,12.374-4.924,12.374-12.247C173.491,31.632,168.55,27.268,161.149,27.268z M161.245,50.784
		c-3.069,0-5.595-4.429-5.595-11.399c0-6.778,2.094-11.526,5.372-11.526c3.069,0,5.595,4.428,5.595,11.398
		C166.616,46.036,164.521,50.784,161.245,50.784z"/>
	<path d="M188.263,37.483c-4.125-2.878-5.771-3.853-5.771-6.283c0-1.966,1.422-3.038,3.341-3.038c3.405,0,5.468,3.821,5.707,7.434
		h0.752c0-4.924,0.064-6.587,0.16-7.993h-0.751c-0.128,0.943-0.289,1.439-0.72,1.439c-0.303,0-0.592-0.16-1.119-0.464
		c-1.103-0.623-2.478-1.311-5.308-1.311c-4.221,0-8.106,1.902-8.106,6.187c0,3.613,2.719,5.499,5.819,7.578
		c2.783,1.854,4.781,3.438,4.781,6.154c0,2.031-1.535,3.197-3.933,3.197c-4.189,0-5.691-4.124-5.947-8.744h-0.751
		c0,5.611-0.048,7.834-0.144,9.496h0.751c0.144-0.944,0.304-1.439,0.736-1.439c0.256,0,0.576,0.128,1.103,0.464
		c1.215,0.591,2.814,1.215,5.804,1.215c4.78,0,8.904-2.063,8.904-6.492C193.571,41.32,191.173,39.513,188.263,37.483z"/>
	<path d="M216.863,27.731c-3.101,0.096-7.593,0.096-10.663,0.096c-3.086,0-7.594,0-10.712-0.096c0.161,2.59,0.225,5.212,0.225,6.491
		c0,0.912-0.033,1.791-0.097,2.35h0.752c1.55-6.186,4.061-8.089,6.459-8.089h0.032V47.22c0,2.686-0.623,3.036-3.629,3.036v0.656
		c1.471-0.032,4.012-0.096,6.73-0.096c2.862,0,5.643,0.064,7.178,0.096v-0.656c-3.006,0-3.629-0.351-3.629-3.036V28.483h0.032
		c2.351,0,4.908,1.934,6.443,8.089h0.751c-0.064-0.559-0.096-1.438-0.096-2.35C216.64,32.943,216.704,30.321,216.863,27.731z"/>
	<path d="M31.072,7.292h0.535c1.103-4.403,2.89-5.757,4.597-5.757h0.023V14.87c0,1.911-0.443,2.162-2.582,2.162v0.466
		c1.047-0.023,2.855-0.068,4.79-0.068c2.037,0,4.016,0.046,5.108,0.068v-0.466c-2.139,0-2.582-0.25-2.582-2.162V1.535h0.023
		c1.673,0,3.493,1.377,4.586,5.757h0.534c-0.046-0.398-0.068-1.024-0.068-1.673c0-0.91,0.046-2.776,0.159-4.619
		c-2.207,0.068-5.404,0.068-7.589,0.068c-2.196,0-5.405,0-7.624-0.068c0.115,1.843,0.16,3.709,0.16,4.619
		C31.141,6.268,31.117,6.894,31.072,7.292z"/>
	<path d="M55.432,17.498v-0.466c-1.399-0.068-1.661-0.307-1.661-2.003V9.431h5.245v5.598c0,1.695-0.228,1.934-1.649,2.003v0.466
		c0.956-0.046,2.583-0.068,4.119-0.068c1.593,0,3.083,0.023,3.914,0.068v-0.466c-1.388-0.068-1.65-0.307-1.65-2.003V3.469
		c0-1.695,0.239-1.934,1.65-2.003V1c-0.831,0.046-2.321,0.068-3.914,0.068c-1.536,0-3.163-0.023-4.119-0.068v0.466
		c1.4,0.068,1.649,0.307,1.649,2.003v5.495h-5.245V3.469c0-1.695,0.239-1.934,1.661-2.003V1c-0.91,0.046-2.446,0.068-3.891,0.068
		c-1.684,0-3.266-0.023-4.153-0.068v0.466c1.399,0.068,1.66,0.307,1.66,2.003v11.56c0,1.695-0.239,1.934-1.66,2.003v0.466
		c0.887-0.046,2.469-0.068,4.153-0.068C52.986,17.43,54.522,17.452,55.432,17.498z"/>
	<path d="M80.202,17.498c-0.16-1.536-0.16-3.14-0.16-3.914c0-0.842,0.023-1.582,0.069-2.139h-0.535
		c-0.751,4.21-2.753,5.518-4.289,5.518h-0.774c-1.207,0-1.423-0.182-1.423-1.468V9.431h0.239c1.751,0,2.958,1.354,3.242,3.083h0.535
		c-0.115-1.775-0.148-2.549-0.148-3.311c0-0.33-0.012-0.648-0.012-1.047c0-0.546,0.024-1.24,0.091-2.264h-0.534
		c-0.285,1.354-1.423,3.072-3.174,3.072H73.09V3.002c0-1.274,0.216-1.468,1.423-1.468h0.307c1.912,0,3.709,1.195,4.29,5.063h0.534
		c-0.046-0.398-0.068-1.035-0.068-1.684c0-0.774,0.046-2.355,0.159-3.914c-1.445,0.068-3.447,0.068-4.87,0.068
		c-1.672,0-5.45,0-8.158-0.068v0.466c1.4,0.068,1.662,0.307,1.662,2.003v11.56c0,1.695-0.239,1.934-1.662,2.003v0.466
		c2.709-0.068,6.486-0.068,8.158-0.068C76.424,17.43,78.62,17.43,80.202,17.498z"/>
</g>
</svg>
